<?xml version="1.0" encoding="utf-8"?>
<!-- Generator: Adobe Illustrator 21.1.0, SVG Export Plug-In . SVG Version: 6.00 Build 0)  -->
<svg version="1.1" id="Layer_1" xmlns="http://www.w3.org/2000/svg" xmlns:xlink="http://www.w3.org/1999/xlink" x="0px" y="0px"
	 viewBox="0 0 194 56" style="enable-background:new 0 0 194 56;" xml:space="preserve">
<style type="text/css">
	.st0{fill:#FFFFFF;}
</style>
<g>
	<path class="st0" d="M131.6,25.1c-0.3-0.3-0.8-0.4-1.4-0.4h-2.1v3.2h2c0.7,0,1.2-0.1,1.5-0.4c0.3-0.3,0.5-0.7,0.5-1.2
		C132,25.8,131.9,25.4,131.6,25.1z"/>
	<path class="st0" d="M120.4,24.6c-0.7,0-1.3,0.3-1.7,0.8c-0.4,0.5-0.6,1.2-0.6,2.1v1.6c0,0.8,0.2,1.5,0.6,2.1
		c0.4,0.5,1,0.8,1.7,0.8c0.8,0,1.4-0.3,1.8-0.8c0.5-0.5,0.7-1.2,0.7-2.1v-1.6c0-0.8-0.2-1.5-0.7-2.1
		C121.8,24.8,121.2,24.6,120.4,24.6z"/>
	<path class="st0" d="M66.1,25.1c-0.3-0.3-0.8-0.4-1.4-0.4h-2.1v3.2h2c0.7,0,1.2-0.1,1.5-0.4c0.3-0.3,0.5-0.7,0.5-1.2
		C66.6,25.8,66.4,25.4,66.1,25.1z"/>
	<polygon class="st0" points="55.2,25.3 53.7,29.5 56.8,29.5 55.3,25.3 	"/>
	<path class="st0" d="M103.9,24.6h-2.3v3.6h2.3c0.6,0,1.1-0.2,1.4-0.5s0.5-0.8,0.5-1.3s-0.2-0.9-0.5-1.3
		C105,24.8,104.5,24.6,103.9,24.6z"/>
	<path class="st0" d="M166,0H28C12.5,0,0,12.5,0,28c0,15.5,12.5,28,28,28h138c15.5,0,28-12.5,28-28C194,12.5,181.5,0,166,0z
		 M40.9,32.3c-0.6,0.5-1.4,0.7-2.4,0.7c-0.9,0-1.7-0.2-2.4-0.7c-0.7-0.5-1-1.2-1-2l0,0h1.2c0,0.6,0.2,1,0.7,1.3s1,0.5,1.6,0.5
		c0.6,0,1.1-0.1,1.5-0.4c0.4-0.3,0.5-0.6,0.5-1.1c0-0.4-0.2-0.8-0.5-1.1c-0.3-0.3-0.9-0.5-1.7-0.7c-1-0.2-1.7-0.6-2.3-1
		c-0.5-0.5-0.8-1-0.8-1.7c0-0.7,0.3-1.3,0.9-1.8c0.6-0.5,1.3-0.7,2.3-0.7c1,0,1.8,0.3,2.4,0.8c0.6,0.6,0.9,1.2,0.9,1.9l0,0h-1.2
		c0-0.5-0.2-1-0.5-1.3s-0.9-0.5-1.5-0.5c-0.6,0-1.1,0.1-1.4,0.4c-0.3,0.3-0.5,0.6-0.5,1.1c0,0.4,0.2,0.7,0.5,1
		c0.4,0.3,0.9,0.5,1.7,0.7c1,0.2,1.7,0.6,2.2,1.1c0.5,0.5,0.8,1,0.8,1.7C41.8,31.3,41.5,31.9,40.9,32.3z M50.6,24.6h-3v8.2h-1.2
		v-8.2h-3v-1h7.2V24.6z M58,32.9l-0.9-2.4h-3.9l-0.9,2.4h-1.3l3.6-9.2h1.1l3.5,9.2H58z M68.2,32.9h-1.3c-0.2-0.1-0.3-0.4-0.3-0.6
		c0-0.3-0.1-0.6-0.1-0.9v-0.8c0-0.5-0.1-0.9-0.4-1.2c-0.3-0.3-0.7-0.5-1.2-0.5h-2.3v4h-1.2v-9.2h3.3c1,0,1.8,0.2,2.3,0.7
		c0.5,0.4,0.8,1.1,0.8,1.9c0,0.5-0.1,0.9-0.4,1.2s-0.6,0.6-1.1,0.8c0.5,0.2,0.9,0.4,1.1,0.8c0.2,0.4,0.3,0.8,0.3,1.4v0.9
		c0,0.3,0,0.5,0.1,0.8s0.2,0.4,0.3,0.6V32.9z M76.7,24.6h-3v8.2h-1.2v-8.2h-3v-1h7.2V24.6z M89.1,32.9H83v-9.2h6v1h-4.8v3h4.2v1
		h-4.2v3.3h4.9V32.9z M96.6,32.9l-2.2-3.7l-2.2,3.7h-1.5l3-4.6l-2.9-4.6h1.5l2.1,3.6l2.1-3.6H98l-2.9,4.6l3,4.6H96.6z M106.2,28.4
		c-0.5,0.5-1.3,0.7-2.3,0.7h-2.3v3.7h-1.2v-9.2h3.5c1,0,1.7,0.3,2.3,0.8c0.5,0.5,0.8,1.2,0.8,2C107,27.3,106.7,27.9,106.2,28.4z
		 M115.1,32.9h-5.6v-9.2h1.2v8.2h4.4V32.9z M124.2,29.1c0,1.1-0.3,2.1-1,2.8c-0.7,0.7-1.6,1.1-2.7,1.1c-1.1,0-1.9-0.4-2.6-1.1
		c-0.7-0.7-1-1.7-1-2.8v-1.6c0-1.1,0.3-2.1,1-2.8c0.7-0.7,1.5-1.1,2.6-1.1c1.1,0,2,0.4,2.7,1.1s1,1.7,1,2.8V29.1z M133.7,32.9h-1.3
		c-0.2-0.1-0.3-0.4-0.3-0.6c0-0.3-0.1-0.6-0.1-0.9v-0.8c0-0.5-0.1-0.9-0.4-1.2c-0.3-0.3-0.7-0.5-1.2-0.5h-2.3v4h-1.2v-9.2h3.3
		c1,0,1.8,0.2,2.3,0.7c0.5,0.4,0.8,1.1,0.8,1.9c0,0.5-0.1,0.9-0.4,1.2c-0.2,0.4-0.6,0.6-1.1,0.8c0.5,0.2,0.9,0.4,1.1,0.8
		c0.2,0.4,0.3,0.8,0.3,1.4v0.9c0,0.3,0,0.5,0.1,0.8s0.2,0.4,0.3,0.6V32.9z M137.6,32.9h-1.3v-9.2h1.3V32.9z M147.7,32.9h-1.2
		l-4.4-7.1l0,0v7.1h-1.2v-9.2h1.2l4.4,7.1l0,0v-7.1h1.2V32.9z M157.5,31.6c-0.2,0.3-0.6,0.6-1.1,0.9s-1.2,0.4-2.1,0.4
		c-1.1,0-2-0.4-2.7-1.1c-0.7-0.7-1.1-1.6-1.1-2.7v-1.9c0-1.1,0.3-2,1-2.7c0.7-0.7,1.5-1.1,2.6-1.1c1.1,0,1.9,0.3,2.5,0.8
		c0.6,0.5,0.9,1.2,0.9,2l0,0h-1.2c0-0.5-0.2-1-0.6-1.3c-0.4-0.3-0.9-0.5-1.6-0.5c-0.7,0-1.3,0.3-1.7,0.8c-0.4,0.5-0.6,1.2-0.6,2v1.9
		c0,0.8,0.2,1.5,0.7,2s1.1,0.8,1.8,0.8c0.5,0,1-0.1,1.3-0.2c0.3-0.1,0.6-0.3,0.7-0.5v-2.1h-2v-1h3.3V31.6z"/>
</g>
</svg>
